<svg width="31" height="20" viewBox="0 0 31 20" fill="none" xmlns="http://www.w3.org/2000/svg">
<path d="M30.2258 3.06C30.0551 2.46804 29.7208 1.92831 29.2564 1.49483C28.7919 1.06136 28.2137 0.749337 27.5794 0.59C25.2437 1.78814e-07 15.858 0 15.858 0C15.858 0 6.47227 1.78814e-07 4.13656 0.59C3.50231 0.749337 2.92403 1.06136 2.45959 1.49483C1.99515 1.92831 1.66084 2.46804 1.49013 3.06C1.054 5.28327 0.842355 7.53982 0.857984 9.8C0.842355 12.0602 1.054 14.3167 1.49013 16.54C1.66084 17.132 1.99515 17.6717 2.45959 18.1052C2.92403 18.5386 3.50231 18.8507 4.13656 19.01C6.47227 19.6 15.858 19.6 15.858 19.6C15.858 19.6 25.2437 19.6 27.5794 19.01C28.2137 18.8507 28.7919 18.5386 29.2564 18.1052C29.7208 17.6717 30.0551 17.132 30.2258 16.54C30.662 14.3167 30.8736 12.0602 30.858 9.8C30.8736 7.53982 30.662 5.28327 30.2258 3.06V3.06ZM12.858 14V5.6L20.6473 9.8L12.858 14Z" fill="white"/>
</svg>
